<svg width="42" height="16" viewBox="0 0 42 16" fill="none" xmlns="http://www.w3.org/2000/svg">
<g clip-path="url(#clip0_19_30)">
<path d="M0.794011 12.04V3.91601H4.32201C6.54201 3.91601 7.07001 5.33201 7.07001 6.19601C7.07001 6.95201 6.73401 7.49201 6.31401 7.81601C6.92601 8.22401 7.22601 8.82401 7.22601 9.59201C7.22601 10.648 6.45801 12.04 4.52601 12.04H3.71001L3.24201 10.288H4.34601C4.93401 10.288 5.30601 10.012 5.30601 9.53201C5.30601 9.02801 4.93401 8.75201 4.34601 8.75201H2.70201V12.04H0.794011ZM2.70201 7.13201H4.26201C4.81401 7.13201 5.16201 6.86801 5.16201 6.41201C5.16201 5.92001 4.81401 5.65601 4.26201 5.65601H2.70201V7.13201ZM12.7604 12.088L9.52045 3.91601H11.5484L13.1804 8.16401L15.0284 3.91601H15.6044L17.4404 8.18801L19.1204 3.91601H21.0524L17.8244 12.088H17.2604L15.3044 7.54001L13.3244 12.088H12.7604Z" fill="#7699D4"/>
<path d="M29.166 8.496C29.166 7.116 29.934 6.168 31.518 6.168H32.334V7.932H31.722C31.242 7.932 31.014 8.208 31.014 8.652V12H29.166V8.496ZM36.7214 12L34.8374 9.3V12H32.9894V3.876H34.8374V8.808L36.7214 6.168H38.8814L36.7934 9L38.9654 12H36.7214ZM40.378 12.144C39.778 12.144 39.334 11.724 39.334 11.136C39.334 10.56 39.79 10.14 40.378 10.14C40.966 10.14 41.422 10.56 41.422 11.136C41.422 11.724 40.978 12.144 40.378 12.144Z" fill="#7699D4"/>
<path d="M23.01 8.07001C23.01 7.48001 23.46 7.00001 24.03 6.96001V5.60001C23.95 5.60001 23.87 5.61001 23.78 5.62001C23.75 5.62001 23.72 5.62001 23.7 5.59001L23.23 5.07001C23.03 5.13001 22.83 5.21001 22.64 5.31001L22.68 6.01001C22.68 6.01001 22.67 6.07001 22.64 6.09001C22.45 6.23001 22.28 6.40001 22.15 6.58001C22.13 6.60001 22.1 6.62001 22.07 6.62001L21.37 6.58001C21.27 6.76001 21.18 6.96001 21.12 7.17001L21.64 7.64001C21.64 7.64001 21.67 7.69001 21.67 7.72001C21.66 7.82001 21.65 7.93001 21.65 8.07001C21.65 8.21001 21.65 8.31001 21.67 8.41001C21.67 8.44001 21.67 8.47001 21.64 8.49001L21.12 8.96001C21.18 9.17001 21.27 9.37001 21.37 9.56001L22.07 9.52001C22.07 9.52001 22.13 9.53001 22.14 9.56001C22.28 9.75001 22.45 9.91001 22.63 10.05C22.65 10.07 22.67 10.1 22.67 10.13L22.63 10.83C22.82 10.93 23.02 11.01 23.22 11.08L23.69 10.56C23.69 10.56 23.74 10.53 23.77 10.53C23.86 10.54 23.95 10.55 24.02 10.55V9.48001V9.19001C23.45 9.14001 23 8.66001 23 8.08001L23.01 8.07001Z" fill="#7699D4"/>
<path d="M24.12 5.41999C24.17 5.41999 24.21 5.45999 24.21 5.50999V5.59999H25.32C25.32 5.59999 25.41 5.55999 25.41 5.50999V4.82999C25.61 4.78999 25.76 4.60999 25.76 4.39999C25.76 4.15999 25.56 3.95999 25.32 3.95999C25.08 3.95999 24.88 4.15999 24.88 4.39999C24.88 4.60999 25.03 4.78999 25.23 4.82999V5.41999H24.12Z" fill="#7699D4"/>
<path d="M24.89 6.6H24.21V6.78H24.89C24.93 6.98 25.11 7.13 25.32 7.13C25.56 7.13 25.76 6.93 25.76 6.69C25.76 6.45 25.56 6.25 25.32 6.25C25.11 6.25 24.93 6.4 24.89 6.6Z" fill="#7699D4"/>
<path d="M25.41 11.31V10.63C25.41 10.58 25.37 10.54 25.32 10.54H24.21V10.63C24.21 10.68 24.17 10.72 24.12 10.72H25.23V11.31C25.03 11.35 24.88 11.53 24.88 11.74C24.88 11.98 25.08 12.18 25.32 12.18C25.56 12.18 25.76 11.98 25.76 11.74C25.76 11.53 25.61 11.35 25.41 11.31Z" fill="#7699D4"/>
<path d="M25.32 9.01001C25.11 9.01001 24.93 9.16001 24.89 9.36001H24.21V9.54001H24.89C24.93 9.74001 25.11 9.89001 25.32 9.89001C25.56 9.89001 25.76 9.69001 25.76 9.45001C25.76 9.21001 25.56 9.01001 25.32 9.01001Z" fill="#7699D4"/>
<path d="M27.02 7.63C26.81 7.63 26.63 7.78 26.59 7.98H23.19C23.19 7.98 23.19 8.04 23.19 8.07C23.19 8.1 23.19 8.13 23.19 8.16H26.59C26.63 8.36 26.81 8.51 27.02 8.51C27.26 8.51 27.46 8.31 27.46 8.07C27.46 7.83 27.26 7.63 27.02 7.63Z" fill="#7699D4"/>
</g>
<defs>
<clipPath id="clip0_19_30">
<rect width="42" height="15.04" fill="white"/>
</clipPath>
</defs>
</svg>
